<?xml version="1.0" encoding="utf-8"?>
<!-- Generated by Mocodo 4.2.8 -->
<svg width="771" height="559" viewBox="0 0 771 559" xmlns="http://www.w3.org/2000/svg">
<rect x="0" y="0" width="771" height="559" fill="#f7f7f7" stroke="none" stroke-width="0"/>

<!-- Association RENCONTRER -->
<g>
	<line x1="186" y1="102" x2="68" y2="102" stroke="#4393c3" stroke-width="2"/>
	<line x1="68" y1="246" x2="68" y2="102" stroke="#4393c3" stroke-width="2"/>
	<g>
		<path d="M113 68 a14 14 90 0 1 14 14 V93 h-118 V82 a14 14 90 0 1 14 -14" fill="#92c5de" stroke="#92c5de" stroke-width="0"/>
		<path d="M127 93 v29 a14 14 90 0 1 -14 14 H23 a14 14 90 0 1 -14 -14 V93 H118" fill="#d1e5f0" stroke="#d1e5f0" stroke-width="0"/>
		<rect x="9" y="68" width="118" height="68" fill="none" rx="14" stroke="#4393c3" stroke-width="2"/>
		<line x1="9" y1="93" x2="127" y2="93" stroke="#4393c3" stroke-width="1"/>
		<text x="26" y="85.75" fill="#000000" font-family="Verdana" font-size="12">RENCONTRER</text>
		<text x="16" y="110.8" fill="#000000" font-family="Verdana" font-size="12">comme domicile</text>
		<text x="16" y="127.8" fill="#000000" font-family="Verdana" font-size="12">comme extérieur</text>
	</g>
	<text x="132" y="119" fill="#b2182b" font-family="Verdana" font-size="12">0,N</text>
	<text x="73" y="153" fill="#b2182b" font-family="Verdana" font-size="12">0,N</text>
</g>

<!-- Association ANALYSER -->
<g>
	<line x1="451" y1="102" x2="324" y2="102" stroke="#4393c3" stroke-width="2"/>
	<line x1="186" y1="102" x2="324" y2="102" stroke="#4393c3" stroke-width="2"/>
	<g>
		<path d="M350 77 a14 14 90 0 1 14 14 V102 h-80 V91 a14 14 90 0 1 14 -14" fill="#92c5de" stroke="#92c5de" stroke-width="0"/>
		<path d="M364 102 v11 a14 14 90 0 1 -14 14 H298 a14 14 90 0 1 -14 -14 V102 H80" fill="#d1e5f0" stroke="#d1e5f0" stroke-width="0"/>
		<rect x="284" y="77" width="80" height="50" fill="none" rx="14" stroke="#4393c3" stroke-width="2"/>
		<line x1="284" y1="102" x2="364" y2="102" stroke="#4393c3" stroke-width="1"/>
		<text x="292" y="94.75" fill="#000000" font-family="Verdana" font-size="12">ANALYSER</text>
	</g>
	<text x="370" y="119" fill="#b2182b" font-family="Verdana" font-size="12">0,1</text>
	<text x="218" y="94" fill="#b2182b" font-family="Verdana" font-size="12">1,N</text>
</g>

<!-- Association RATTACHER -->
<g>
	<line x1="68" y1="246" x2="186" y2="246" stroke="#4393c3" stroke-width="2"/>
	<line x1="324" y1="390" x2="186" y2="246" stroke="#4393c3" stroke-width="2"/>
	<g>
		<path d="M216 221 a14 14 90 0 1 14 14 V246 h-88 V235 a14 14 90 0 1 14 -14" fill="#92c5de" stroke="#92c5de" stroke-width="0"/>
		<path d="M230 246 v11 a14 14 90 0 1 -14 14 H156 a14 14 90 0 1 -14 -14 V246 H88" fill="#d1e5f0" stroke="#d1e5f0" stroke-width="0"/>
		<rect x="142" y="221" width="88" height="50" fill="none" rx="14" stroke="#4393c3" stroke-width="2"/>
		<line x1="142" y1="246" x2="230" y2="246" stroke="#4393c3" stroke-width="1"/>
		<text x="149" y="238.75" fill="#000000" font-family="Verdana" font-size="12">RATTACHER</text>
		<text x="149" y="263.8" fill="#000000" font-family="Verdana" font-size="12">saison</text>
	</g>
	<text x="115" y="263" fill="#b2182b" font-family="Verdana" font-size="12">0,N</text>
	<text x="273.27" y="331" fill="#b2182b" font-family="Verdana" font-size="12">1,N</text>
</g>

<!-- Association JOUER -->
<g>
	<line x1="324" y1="390" x2="324" y2="246" stroke="#4393c3" stroke-width="2"/>
	<line x1="186" y1="102" x2="324" y2="246" stroke="#4393c3" stroke-width="2"/>
	<g>
		<path d="M338 221 a14 14 90 0 1 14 14 V246 h-56 V235 a14 14 90 0 1 14 -14" fill="#92c5de" stroke="#92c5de" stroke-width="0"/>
		<path d="M352 246 v11 a14 14 90 0 1 -14 14 H310 a14 14 90 0 1 -14 -14 V246 H56" fill="#d1e5f0" stroke="#d1e5f0" stroke-width="0"/>
		<rect x="296" y="221" width="56" height="50" fill="none" rx="14" stroke="#4393c3" stroke-width="2"/>
		<line x1="296" y1="246" x2="352" y2="246" stroke="#4393c3" stroke-width="1"/>
		<text x="304" y="238.75" fill="#000000" font-family="Verdana" font-size="12">JOUER</text>
	</g>
	<text x="329" y="331" fill="#b2182b" font-family="Verdana" font-size="12">0,N</text>
	<text x="218" y="129.03" fill="#b2182b" font-family="Verdana" font-size="12">1,N</text>
</g>

<!-- Association DF0 -->
<g>
	<line x1="593" y1="390" x2="593" y2="246" stroke="#4393c3" stroke-width="2"/>
	<line x1="593" y1="102" x2="593" y2="246" stroke="#4393c3" stroke-width="2"/>
	<g>
		<circle cx="593" cy="246" r="16" stroke="#4393c3" stroke-width="2" fill="#92c5de"/>
		<text x="584" y="250" fill="#000000" font-family="Verdana" font-size="12">DF</text>
	</g>
	<text x="567" y="306" fill="#b2182b" font-family="Verdana" font-size="12">1,1</text>
	<text x="598" y="153" fill="#b2182b" font-family="Verdana" font-size="12">0,N</text>
</g>

<!-- Association DF1 -->
<g>
	<line x1="593" y1="390" x2="721" y2="246" stroke="#4393c3" stroke-width="2"/>
	<line x1="721" y1="102" x2="721" y2="246" stroke="#4393c3" stroke-width="2"/>
	<g>
		<circle cx="721" cy="246" r="16" stroke="#4393c3" stroke-width="2" fill="#92c5de"/>
		<text x="712" y="250" fill="#000000" font-family="Verdana" font-size="12">DF</text>
	</g>
	<text x="645" y="347.64" fill="#b2182b" font-family="Verdana" font-size="12">1,1</text>
	<text x="726" y="153" fill="#b2182b" font-family="Verdana" font-size="12">0,N</text>
</g>

<!-- Association APPARTENIR -->
<g>
	<line x1="68" y1="390" x2="186" y2="390" stroke="#4393c3" stroke-width="2"/>
	<line x1="324" y1="390" x2="186" y2="390" stroke="#4393c3" stroke-width="2"/>
	<g>
		<path d="M218 365 a14 14 90 0 1 14 14 V390 h-92 V379 a14 14 90 0 1 14 -14" fill="#92c5de" stroke="#92c5de" stroke-width="0"/>
		<path d="M232 390 v11 a14 14 90 0 1 -14 14 H154 a14 14 90 0 1 -14 -14 V390 H92" fill="#d1e5f0" stroke="#d1e5f0" stroke-width="0"/>
		<rect x="140" y="365" width="92" height="50" fill="none" rx="14" stroke="#4393c3" stroke-width="2"/>
		<line x1="140" y1="390" x2="232" y2="390" stroke="#4393c3" stroke-width="1"/>
		<text x="147" y="382.75" fill="#000000" font-family="Verdana" font-size="12">APPARTENIR</text>
	</g>
	<text x="111" y="407" fill="#b2182b" font-family="Verdana" font-size="12">0,N</text>
	<text x="238" y="407" fill="#b2182b" font-family="Verdana" font-size="12">1,1</text>
</g>

<!-- Association DF2 -->
<g>
	<line x1="324" y1="390" x2="451" y2="390" stroke="#4393c3" stroke-width="2"/>
	<line x1="593" y1="390" x2="451" y2="390" stroke="#4393c3" stroke-width="2"/>
	<g>
		<circle cx="451" cy="390" r="16" stroke="#4393c3" stroke-width="2" fill="#92c5de"/>
		<text x="442" y="394" fill="#000000" font-family="Verdana" font-size="12">DF</text>
	</g>
	<text x="389" y="407" fill="#b2182b" font-family="Verdana" font-size="12">1,N</text>
	<text x="520" y="407" fill="#b2182b" font-family="Verdana" font-size="12">1,1</text>
</g>

<!-- Association SUIVRE -->
<g>
	<line x1="324" y1="390" x2="324" y2="508" stroke="#4393c3" stroke-width="2"/>
	<line x1="451" y1="508" x2="324" y2="508" stroke="#4393c3" stroke-width="2"/>
	<g>
		<path d="M341 483 a14 14 90 0 1 14 14 V508 h-62 V497 a14 14 90 0 1 14 -14" fill="#92c5de" stroke="#92c5de" stroke-width="0"/>
		<path d="M355 508 v11 a14 14 90 0 1 -14 14 H307 a14 14 90 0 1 -14 -14 V508 H62" fill="#d1e5f0" stroke="#d1e5f0" stroke-width="0"/>
		<rect x="293" y="483" width="62" height="50" fill="none" rx="14" stroke="#4393c3" stroke-width="2"/>
		<line x1="293" y1="508" x2="355" y2="508" stroke="#4393c3" stroke-width="1"/>
		<text x="301" y="500.75" fill="#000000" font-family="Verdana" font-size="12">SUIVRE</text>
	</g>
	<text x="329" y="458" fill="#b2182b" font-family="Verdana" font-size="12">0,N</text>
	<text x="374" y="525" fill="#b2182b" font-family="Verdana" font-size="12">0,N</text>
</g>

<!-- Association DF3 -->
<g>
	<line x1="451" y1="508" x2="593" y2="508" stroke="#4393c3" stroke-width="2"/>
	<line x1="593" y1="390" x2="593" y2="508" stroke="#4393c3" stroke-width="2"/>
	<g>
		<circle cx="593" cy="508" r="16" stroke="#4393c3" stroke-width="2" fill="#92c5de"/>
		<text x="584" y="512" fill="#000000" font-family="Verdana" font-size="12">DF</text>
	</g>
	<text x="506" y="525" fill="#b2182b" font-family="Verdana" font-size="12">1,N</text>
	<text x="598" y="483" fill="#b2182b" font-family="Verdana" font-size="12">1,1</text>
</g>

<!-- Entity MATCH -->
<g>
	<g>
		<rect x="159" y="68" width="54" height="25" fill="#f4a582" stroke="none" stroke-width="0" opacity="1"/>
		<rect x="159" y="93" width="54" height="43" fill="#fddbc7" stroke="none" stroke-width="0" opacity="1"/>
		<rect x="159" y="68" width="54" height="68" fill="none" stroke="#d6604d" stroke-width="2" opacity="1"/>
		<line x1="159" y1="93" x2="213" y2="93" stroke="#d6604d" stroke-width="1"/>
	</g>
	<text x="164" y="85.75" fill="#000000" font-family="Verdana" font-size="12">MATCH</text>
	<text x="164" y="110.8" fill="#000000" font-family="Verdana" font-size="12">id</text>
	<line x1="164" y1="113" x2="176" y2="113" stroke="#000000" stroke-width="1"/>
	<text x="164" y="127.8" fill="#000000" font-family="Verdana" font-size="12">score</text>
</g>

<!-- Entity STATISTIQUE -->
<g>
	<g>
		<rect x="396" y="9" width="110" height="25" fill="#f4a582" stroke="none" stroke-width="0" opacity="1"/>
		<rect x="396" y="34" width="110" height="161" fill="#fddbc7" stroke="none" stroke-width="0" opacity="1"/>
		<rect x="396" y="9" width="110" height="186" fill="none" stroke="#d6604d" stroke-width="2" opacity="1"/>
		<line x1="396" y1="34" x2="506" y2="34" stroke="#d6604d" stroke-width="1"/>
	</g>
	<text x="409" y="26.75" fill="#000000" font-family="Verdana" font-size="12">STATISTIQUE</text>
	<text x="401" y="51.8" fill="#000000" font-family="Verdana" font-size="12">code stats</text>
	<line x1="401" y1="54" x2="464" y2="54" stroke="#000000" stroke-width="1"/>
	<text x="401" y="68.8" fill="#000000" font-family="Verdana" font-size="12">passes décisives</text>
	<text x="401" y="85.8" fill="#000000" font-family="Verdana" font-size="12">buts marqués</text>
	<text x="401" y="102.8" fill="#000000" font-family="Verdana" font-size="12">minutes jouées</text>
	<text x="401" y="119.8" fill="#000000" font-family="Verdana" font-size="12">carton rouge</text>
	<text x="401" y="136.8" fill="#000000" font-family="Verdana" font-size="12">carton jaune</text>
	<text x="401" y="153.8" fill="#000000" font-family="Verdana" font-size="12">arrêts</text>
	<text x="401" y="170.8" fill="#000000" font-family="Verdana" font-size="12">buts encaissés</text>
	<text x="401" y="187.8" fill="#000000" font-family="Verdana" font-size="12">forme physique</text>
</g>

<!-- Entity NATIONALITE -->
<g>
	<g>
		<rect x="538" y="68" width="110" height="25" fill="#f4a582" stroke="none" stroke-width="0" opacity="1"/>
		<rect x="538" y="93" width="110" height="43" fill="#fddbc7" stroke="none" stroke-width="0" opacity="1"/>
		<rect x="538" y="68" width="110" height="68" fill="none" stroke="#d6604d" stroke-width="2" opacity="1"/>
		<line x1="538" y1="93" x2="648" y2="93" stroke="#d6604d" stroke-width="1"/>
	</g>
	<text x="551" y="85.75" fill="#000000" font-family="Verdana" font-size="12">NATIONALITE</text>
	<text x="543" y="110.8" fill="#000000" font-family="Verdana" font-size="12">code_nationalite</text>
	<line x1="543" y1="113" x2="643" y2="113" stroke="#000000" stroke-width="1"/>
	<text x="543" y="127.8" fill="#000000" font-family="Verdana" font-size="12">libellé</text>
</g>

<!-- Entity GENRE -->
<g>
	<g>
		<rect x="680" y="68" width="82" height="25" fill="#f4a582" stroke="none" stroke-width="0" opacity="1"/>
		<rect x="680" y="93" width="82" height="43" fill="#fddbc7" stroke="none" stroke-width="0" opacity="1"/>
		<rect x="680" y="68" width="82" height="68" fill="none" stroke="#d6604d" stroke-width="2" opacity="1"/>
		<line x1="680" y1="93" x2="762" y2="93" stroke="#d6604d" stroke-width="1"/>
	</g>
	<text x="700" y="85.75" fill="#000000" font-family="Verdana" font-size="12">GENRE</text>
	<text x="685" y="110.8" fill="#000000" font-family="Verdana" font-size="12">code_genre</text>
	<line x1="685" y1="113" x2="756" y2="113" stroke="#000000" stroke-width="1"/>
	<text x="685" y="127.8" fill="#000000" font-family="Verdana" font-size="12">libellé</text>
</g>

<!-- Entity EQUIPES -->
<g>
	<g>
		<rect x="26" y="161" width="84" height="25" fill="#f4a582" stroke="none" stroke-width="0" opacity="1"/>
		<rect x="26" y="186" width="84" height="145" fill="#fddbc7" stroke="none" stroke-width="0" opacity="1"/>
		<rect x="26" y="161" width="84" height="170" fill="none" stroke="#d6604d" stroke-width="2" opacity="1"/>
		<line x1="26" y1="186" x2="110" y2="186" stroke="#d6604d" stroke-width="1"/>
	</g>
	<text x="41" y="178.75" fill="#000000" font-family="Verdana" font-size="12">EQUIPES</text>
	<text x="31" y="203.8" fill="#000000" font-family="Verdana" font-size="12">code équipe</text>
	<line x1="31" y1="206" x2="105" y2="206" stroke="#000000" stroke-width="1"/>
	<text x="31" y="220.8" fill="#000000" font-family="Verdana" font-size="12">nom club</text>
	<text x="31" y="237.8" fill="#000000" font-family="Verdana" font-size="12">logo</text>
	<text x="31" y="254.8" fill="#000000" font-family="Verdana" font-size="12">adresse</text>
	<text x="31" y="271.8" fill="#000000" font-family="Verdana" font-size="12">code postal</text>
	<text x="31" y="288.8" fill="#000000" font-family="Verdana" font-size="12">ville</text>
	<text x="31" y="305.8" fill="#000000" font-family="Verdana" font-size="12">latitude</text>
	<text x="31" y="322.8" fill="#000000" font-family="Verdana" font-size="12">longitude</text>
</g>

<!-- Entity POSTE -->
<g>
	<g>
		<rect x="30" y="356" width="76" height="25" fill="#f4a582" stroke="none" stroke-width="0" opacity="1"/>
		<rect x="30" y="381" width="76" height="43" fill="#fddbc7" stroke="none" stroke-width="0" opacity="1"/>
		<rect x="30" y="356" width="76" height="68" fill="none" stroke="#d6604d" stroke-width="2" opacity="1"/>
		<line x1="30" y1="381" x2="106" y2="381" stroke="#d6604d" stroke-width="1"/>
	</g>
	<text x="48" y="373.75" fill="#000000" font-family="Verdana" font-size="12">POSTE</text>
	<text x="35" y="398.8" fill="#000000" font-family="Verdana" font-size="12">code poste</text>
	<line x1="35" y1="401" x2="101" y2="401" stroke="#000000" stroke-width="1"/>
	<text x="35" y="415.8" fill="#000000" font-family="Verdana" font-size="12">libellé</text>
</g>

<!-- Entity JOUEUR -->
<g>
	<g>
		<rect x="264" y="339" width="120" height="25" fill="#f4a582" stroke="none" stroke-width="0" opacity="1"/>
		<rect x="264" y="364" width="120" height="77" fill="#fddbc7" stroke="none" stroke-width="0" opacity="1"/>
		<rect x="264" y="339" width="120" height="102" fill="none" stroke="#d6604d" stroke-width="2" opacity="1"/>
		<line x1="264" y1="364" x2="384" y2="364" stroke="#d6604d" stroke-width="1"/>
	</g>
	<text x="300" y="356.75" fill="#000000" font-family="Verdana" font-size="12">JOUEUR</text>
	<text x="269" y="381.8" fill="#000000" font-family="Verdana" font-size="12">code joueur</text>
	<line x1="269" y1="384" x2="341" y2="384" stroke="#000000" stroke-width="1"/>
	<text x="269" y="398.8" fill="#000000" font-family="Verdana" font-size="12">date de naissance</text>
	<text x="269" y="415.8" fill="#000000" font-family="Verdana" font-size="12">pied fort</text>
	<text x="269" y="432.8" fill="#000000" font-family="Verdana" font-size="12">nb de match joué</text>
</g>

<!-- Entity UTILISATEUR -->
<g>
	<g>
		<rect x="546" y="314" width="94" height="25" fill="#f4a582" stroke="none" stroke-width="0" opacity="1"/>
		<rect x="546" y="339" width="94" height="127" fill="#fddbc7" stroke="none" stroke-width="0" opacity="1"/>
		<rect x="546" y="314" width="94" height="152" fill="none" stroke="#d6604d" stroke-width="2" opacity="1"/>
		<line x1="546" y1="339" x2="640" y2="339" stroke="#d6604d" stroke-width="1"/>
	</g>
	<text x="552" y="331.75" fill="#000000" font-family="Verdana" font-size="12">UTILISATEUR</text>
	<text x="551" y="356.8" fill="#000000" font-family="Verdana" font-size="12">code user</text>
	<line x1="551" y1="359" x2="610" y2="359" stroke="#000000" stroke-width="1"/>
	<text x="551" y="373.8" fill="#000000" font-family="Verdana" font-size="12">nom</text>
	<text x="551" y="390.8" fill="#000000" font-family="Verdana" font-size="12">prénom</text>
	<text x="551" y="407.8" fill="#000000" font-family="Verdana" font-size="12">email</text>
	<text x="551" y="424.8" fill="#000000" font-family="Verdana" font-size="12">mot de passe</text>
	<text x="551" y="441.8" fill="#000000" font-family="Verdana" font-size="12">avatar</text>
	<text x="551" y="458.8" fill="#000000" font-family="Verdana" font-size="12">role</text>
</g>

<!-- Entity RECRUTEUR -->
<g>
	<g>
		<rect x="401" y="466" width="100" height="25" fill="#f4a582" stroke="none" stroke-width="0" opacity="1"/>
		<rect x="401" y="491" width="100" height="59" fill="#fddbc7" stroke="none" stroke-width="0" opacity="1"/>
		<rect x="401" y="466" width="100" height="84" fill="none" stroke="#d6604d" stroke-width="2" opacity="1"/>
		<line x1="401" y1="491" x2="501" y2="491" stroke="#d6604d" stroke-width="1"/>
	</g>
	<text x="414" y="483.75" fill="#000000" font-family="Verdana" font-size="12">RECRUTEUR</text>
	<text x="406" y="508.8" fill="#000000" font-family="Verdana" font-size="12">code recruteur</text>
	<line x1="406" y1="511" x2="495" y2="511" stroke="#000000" stroke-width="1"/>
	<text x="406" y="525.8" fill="#000000" font-family="Verdana" font-size="12">club</text>
	<text x="406" y="542.8" fill="#000000" font-family="Verdana" font-size="12">ville</text>
</g>
</svg>